<svg xmlns="http://www.w3.org/2000/svg" width="1200" height="105" fill="none"><g clip-path="url(#a)"><path fill="#170F0C" d="M93.95 7.441C93.95 3.331 90.163 0 85.497 0h-2.055c-4.457 0-8.247 3.022-8.564 6.874V95.15c0 4.108 3.823 7.195 8.502 7.195h2.064c8.88 0 8.51-7.153 8.51-7.195V7.441h-.004ZM63.3 52.6c0-17.626-10.87-26.424-32.601-26.424-12.194 0-20.89 3.614-22.316 4.457-4.991 2.931-2.31 8.169-1.686 9.246.835 1.439 3.73 6.019 7.914 4.683 3.343-1.09 11.944-2.586 15.348-2.586 5.09 0 8.74.929 10.944 2.8 2.2 1.862 3.305 4.847 3.305 8.974v3.73H26.152c-8.626 0-15.237 2.104-19.833 6.314C2.105 67.61 0 72.74 0 79.154c0 6.882 2.183 12.494 6.541 16.856 4.35 4.358 10.64 6.335 19.154 6.335h17.087c15.807 0 20.515-8.333 20.515-15.742V52.6h.004ZM44.217 74.264c0 4.6-.888 7.705-2.643 9.329-1.764 1.632-3.478 2.66-5.143 3.091-1.665.436-4.017.638-7.051.638-7.339 0-11.014-2.858-11.014-8.597 0-5.74 3.573-8.473 10.722-8.473h15.13v4.016-.004ZM240.462 52.6c0-17.626-10.87-26.424-32.602-26.424-12.198 0-20.889 3.614-22.316 4.457-4.995 2.931-2.31 8.169-1.685 9.246.834 1.439 3.733 6.019 7.914 4.683 3.342-1.09 11.943-2.586 15.351-2.586 5.09 0 8.741.929 10.944 2.8 2.2 1.862 3.306 4.847 3.306 8.974v3.73h-18.061c-8.625 0-15.236 2.104-19.833 6.314-4.214 3.82-6.323 8.95-6.323 15.364 0 6.882 2.187 12.494 6.541 16.856 4.35 4.358 10.932 6.335 19.451 6.335h16.794c15.808 0 20.515-8.333 20.515-15.742V52.6h.004Zm-19.084 21.665c0 4.6-.888 7.705-2.644 9.329-1.764 1.632-3.478 2.66-5.143 3.091-1.665.436-4.017.638-7.051.638-7.338 0-11.014-2.858-11.014-8.597 0-5.74 3.573-8.473 10.722-8.473h15.13v4.016-.004ZM526.423 54.531c0-4.312-.563-8.177-1.714-11.61-1.143-3.412-5.16-9.521-13.493-13.67-8.334-4.148-23.064-4.156-31.418.107-8.354 4.264-12.35 10.254-13.489 13.67-1.139 3.429-1.719 7.294-1.719 11.606v40.512c0 4.087 3.7 7.401 8.252 7.187h2.006c4.345.218 7.988-3.35 8.296-7.187l.013-37.98c0-4.596 1.628-13.36 12.276-13.36s12.403 8.666 12.403 13.258v38.082c.317 3.947 4.091 7.392 8.359 7.187h2.01c4.526.205 8.214-3.1 8.214-7.187V54.531h.004ZM355.934 43.172c-1.291-3.478-5.764-10.27-13.764-14.15-7.807-3.791-21.173-3.791-29.264 0-2.569 1.204-6.841 4.46-6.841 4.46s-3.038-2.261-7.499-4.383c-7.902-3.753-21.399-3.692-29.358-.078-9.3 4.222-13.119 10.883-14.402 14.36-1.282 3.475-1.928 7.356-1.928 11.64V95.1c0 4.095 3.696 7.413 8.26 7.182h2.002c4.559.231 8.288-3.1 8.288-7.194l.012-37.499c0-2.66.025-6.66 3.894-10.595 2.043-2.08 5.62-2.972 8.526-2.972 2.907 0 6.328.896 8.428 3.001 3.848 3.848 3.853 7.906 3.853 10.566v37.511c0 4.095 3.708 7.413 8.276 7.182h2.425c4.564.231 8.288-3.1 8.288-7.194l.013-37.499c0-2.66-.013-6.701 3.856-10.566 2.068-2.068 4.65-2.989 8.28-2.989 3.63 0 6.208.926 8.28 2.99 3.881 3.864 3.881 7.905 3.881 10.565V95.09c0 4.095 3.717 7.425 8.276 7.194h2.006c4.564.231 8.256-3.087 8.256-7.182v-40.08c0-4.284-.753-8.37-2.039-11.845l-.005-.004ZM168.409 43.398c-1.324-4.493-3.257-7.98-5.805-10.471-4.605-4.502-10.817-6.755-18.649-6.755-4.013 0-7.491.588-10.43 1.76-2.936 1.167-6.212 2.713-8.083 4.374V7.441c0-4.11-3.807-7.441-8.506-7.441h-2.068c-4.695 0-8.514 3.33-8.514 7.441v71.754c0 14.253 9.825 23.158 23.138 23.158 2.96 0 10.327-.008 14.541-.008 7.832 0 13.962-1.912 18.571-6.413 3.428-3.339 5.681-8.182 6.758-14.493.683-3.922 1.032-9.612 1.032-17.073 0-9.473-.666-16.458-1.985-20.968ZM149.09 79.741c-1.957 4.104-5.534 6.147-10.726 6.147-5.193 0-8.996-2.043-10.858-6.147-1.381-2.955-2.068-8.062-2.068-15.31 0-7.248.744-12.251 2.208-15.31 1.858-4.004 5.435-6.007 10.718-6.007s8.917 2.052 10.878 6.15c1.365 2.953 2.056 8.014 2.056 15.167 0 7.154-.74 12.157-2.208 15.31Z"/><path fill="#F27422" d="M447.508 41.597V16.264l-.033.02c-.053-.719-.386-1.59-1.245-1.952-.551-.23-1.226-.12-1.945.415l-12.827 12.778c-.666-.309-1.345-.6-2.043-.876-5.608-2.175-11.849-3.264-18.727-3.264s-13.255 1.09-18.739 3.264c-.662.271-1.312.56-1.949.863L377.276 14.76c-.662-.55-1.41-.666-1.978-.427-.863.362-1.196 1.233-1.245 1.953v25.247s-5.407 12.074-5.407 22.48c0 8.609 1.801 20.297 11.273 29.773 3.388 3.388 7.709 6.007 12.799 8.009 5.093 2.015 11.088 3.014 17.97 3.014s13.057-.999 18.151-3.014c5.098-2.002 9.427-4.62 12.811-8.008 9.924-9.93 11.273-20.82 11.273-29.774 0-10.406-5.415-22.415-5.415-22.415Zm-15.939 24.836c0 11.479-9.308 20.783-20.787 20.783-11.478 0-20.782-9.304-20.782-20.782v-6.077c0-11.478 9.304-20.786 20.782-20.786 11.479 0 20.787 9.303 20.787 20.786v6.076Z"/><path fill="#8E8E8E" d="m642.126 28.98-2.837-2.837-35.246 35.25-35.249-35.25-2.833 2.837 35.246 35.246-35.246 35.25 2.833 2.836 35.249-35.25 35.246 35.25 2.837-2.837-35.246-35.25 35.246-35.245Z"/><path fill="#B7FF00" d="M1200 20.133 681.664 76.92v20.215H1200V20.133Z"/><path fill="#111AFF" d="M779.626 103.936h10.883c12.839 0 23.343-10.574 23.343-23.504v-43.78c0-12.926-10.504-23.504-23.343-23.504h-10.883c-12.839 0-23.344 10.574-23.344 23.504v43.78c0 12.926 10.505 23.504 23.344 23.504Zm-3.902-65.32c0-5.171 4.206-9.406 9.345-9.406s9.345 4.235 9.345 9.407v39.85c0 5.176-4.206 9.407-9.345 9.407s-9.345-4.235-9.345-9.407v-39.85ZM719.656 104.105c27.347 0 27.553-17.63 27.602-19.171.046-1.542 0-70.7 0-70.7h-19.269l-.074 67.378c0 4.502-3.643 6.656-8.14 6.656-4.498 0-8.145-2.154-8.145-6.656V62.791h-18.328v23.208s.21 18.106 26.354 18.106ZM1096.47 64.929h25.12V49.623h-25.12V30.037h26.99V14.184h-46.33v88.141h46.65v-15.85h-27.31V64.93ZM982.022 13.148H971.14c-12.84 0-23.344 10.574-23.344 23.504v43.784c0 12.926 10.504 23.504 23.344 23.504h10.882c12.84 0 23.348-10.574 23.348-23.504V36.652c0-12.926-10.508-23.504-23.348-23.504Zm3.902 65.32c0 5.175-4.206 9.406-9.345 9.406s-9.345-4.235-9.345-9.407v-39.85c0-5.176 4.206-9.407 9.345-9.407s9.345 4.235 9.345 9.407v39.85ZM947.78 102.296l-24.363-45.372L947.34 14.2h-20.042l-22.213 41.326V14.2h-19.319v88.145h19.319V60.369l22.455 41.927h20.24ZM1174.11 14.204h-30.53l-16.99 88.141h18.39l3.82-20.914 20.25.194 3.31 20.716h19.23l-17.48-88.14v.003Zm-22.4 52.25 7.43-38.448 7.42 38.448h-14.85ZM1072.25 102.329l-7.52-31.612c-.68-2.779-1.87-4.62-4.35-5.492 5.33-2.446 8.33-7.824 8.33-15.594V35.998c0-4.432-1.33-8.551-3.6-11.992-3.76-5.904-10.22-9.802-17.56-9.802h-33.08v88.137h18.68v-.012h.66v-28.87l12.38-3.918 7.22 32.784h.27v.012h18.31v-.012h.26v.004Zm-28.69-46.38c-2.78.91-9.89 3.195-9.89 3.195V28.121h8.97c3.18 0 6.61 2.368 6.61 6.574V48.45c0 4.226-2.68 6.52-5.69 7.499ZM878.259 72.872v-.037c0-.185-.017-.366-.025-.551h.012s.354-11.919-11.268-14.694c5.472-2.228 9.431-7.388 9.891-13.542.008-.09.004-.181.012-.272.017-.308.037-.616.037-.929V32.561c0-7.42-4.436-13.793-10.796-16.642a18.5 18.5 0 0 0-7.449-1.682h-35.751v88.141h35.94c1.628 0 3.198-.222 4.707-.6.14-.033.276-.07.416-.107.328-.091.657-.181.978-.288 7.725-2.495 13.3-9.768 13.3-18.352V72.868l-.004.004Zm-20.585-30.974c0 3.478-2.985 5.16-6.336 6.228-4.469 1.423-9.233 2.923-9.233 2.923V26.115h9.27c3.479.131 6.299 2.951 6.299 6.43v9.353Zm-15.43 23.105 9.925-3.141c5.016 0 6.775 5.192 6.775 8.934v10.208a7.006 7.006 0 0 1-7.005 7.005h-9.691V65l-.004.004Z"/></g><defs><clipPath id="a"><path fill="#fff" d="M0 0h1200v104.808H0z"/></clipPath></defs></svg>